<?xml version="1.0" encoding="UTF-8" standalone="no"?>
<svg
   xmlns:dc="http://purl.org/dc/elements/1.1/"
   xmlns:cc="http://creativecommons.org/ns#"
   xmlns:rdf="http://www.w3.org/1999/02/22-rdf-syntax-ns#"
   xmlns:svg="http://www.w3.org/2000/svg"
   xmlns="http://www.w3.org/2000/svg"
   xmlns:sodipodi="http://sodipodi.sourceforge.net/DTD/sodipodi-0.dtd"
   xmlns:inkscape="http://www.inkscape.org/namespaces/inkscape"
   id="Mouse"
   version="1.1"
   xml:space="preserve"
   viewBox="0 0 511.99998 511.99999"
   enable-background="new 0 0 595.28 841.89"
   y="0px"
   x="0px"
   sodipodi:docname="ShowMouse.svg"
   inkscape:version="0.92.3 (2405546, 2018-03-11)"
   width="512"
   height="512"><defs
   id="defs3833"><filter
     inkscape:collect="always"
     style="color-interpolation-filters:sRGB"
     id="filter4881"
     x="-0.24494322"
     width="1.4898864"
     y="-0.23525237"
     height="1.4705046"><feGaussianBlur
       inkscape:collect="always"
       stdDeviation="8.0365292"
       id="feGaussianBlur4883" /></filter><filter
     inkscape:collect="always"
     style="color-interpolation-filters:sRGB"
     id="filter4929"
     x="-0.11977262"
     width="1.2395452"
     y="-0.14700776"
     height="1.2940155"><feGaussianBlur
       inkscape:collect="always"
       stdDeviation="3.3455396"
       id="feGaussianBlur4931" /></filter><filter
     inkscape:collect="always"
     style="color-interpolation-filters:sRGB"
     id="filter4985"
     x="-0.14154947"
     width="1.2830989"
     y="-0.17373645"
     height="1.3474729"><feGaussianBlur
       inkscape:collect="always"
       stdDeviation="3.9538195"
       id="feGaussianBlur4987" /></filter><filter
     inkscape:collect="always"
     style="color-interpolation-filters:sRGB"
     id="filter5065"
     x="-0.10174358"
     width="1.2034872"
     y="-0.090385564"
     height="1.1807711"><feGaussianBlur
       inkscape:collect="always"
       stdDeviation="2.5008919"
       id="feGaussianBlur5067" /></filter></defs><sodipodi:namedview
   pagecolor="#ffffff"
   bordercolor="#666666"
   borderopacity="1"
   objecttolerance="10"
   gridtolerance="10"
   guidetolerance="10"
   inkscape:pageopacity="0"
   inkscape:pageshadow="2"
   inkscape:window-width="1600"
   inkscape:window-height="837"
   id="namedview3831"
   showgrid="false"
   inkscape:zoom="1.3485292"
   inkscape:cx="255.75429"
   inkscape:cy="222.81905"
   inkscape:window-x="-8"
   inkscape:window-y="-8"
   inkscape:window-maximized="1"
   inkscape:current-layer="layer3"
   fit-margin-top="0"
   fit-margin-left="0"
   fit-margin-right="0"
   fit-margin-bottom="0" />


























<path
   d="M 284.6763,516.32287"
   id="path3826"
   inkscape:connector-curvature="0"
   style="fill:none;stroke:#000000;stroke-width:3" />
<metadata
   id="metadata3828"><rdf:RDF><cc:Work><dc:format>image/svg+xml</dc:format><dc:type
         rdf:resource="http://purl.org/dc/dcmitype/StillImage" /><cc:license
         rdf:resource="http://creativecommons.org/publicdomain/zero/1.0/" /><dc:publisher><cc:Agent
           rdf:about="http://openclipart.org/"><dc:title>Zirneklītis</dc:title></cc:Agent></dc:publisher><dc:title /><dc:date>2020-02-20</dc:date><dc:description>A happy cartoon mouse</dc:description><dc:source /><dc:creator><cc:Agent><dc:title>Zirneklītis</dc:title></cc:Agent></dc:creator><dc:subject><rdf:Bag><rdf:li>mouse</rdf:li><rdf:li>joy</rdf:li></rdf:Bag></dc:subject></cc:Work><cc:License
       rdf:about="http://creativecommons.org/publicdomain/zero/1.0/"><cc:permits
         rdf:resource="http://creativecommons.org/ns#Reproduction" /><cc:permits
         rdf:resource="http://creativecommons.org/ns#Distribution" /><cc:permits
         rdf:resource="http://creativecommons.org/ns#DerivativeWorks" /></cc:License></rdf:RDF></metadata><g
   inkscape:groupmode="layer"
   id="layer1"
   inkscape:label="pamatattēls"
   style="display:inline"
   transform="translate(-110.678,-267.99998)"><ellipse
     style="fill:#b5966d;stroke:#1b0c10"
     rx="76.029999"
     ry="67.999001"
     cy="388.83972"
     cx="473.88062"
     id="ellipse3774" /><ellipse
     style="fill:#b5966d;stroke:#1b0c10"
     rx="76.029999"
     ry="67.999001"
     cy="388.83972"
     cx="221.4306"
     id="ellipse3776" /><ellipse
     style="fill:#b5966d;stroke:#0f0c09"
     rx="74.821999"
     ry="26.25"
     cy="700.84973"
     cx="461.19061"
     id="ellipse3778" /><ellipse
     style="fill:#b5966d;stroke:#110e09"
     rx="74.821999"
     ry="26.25"
     cy="700.84973"
     cx="219.87061"
     id="ellipse3780" /><ellipse
     style="fill:#b5966d;stroke:#060304"
     rx="166.07001"
     ry="147.32001"
     cy="561.15973"
     cx="351.4606"
     id="ellipse3782" /><path
     style="fill:#ed1c24"
     d="M 180.87059,805.59973"
     id="path3794"
     inkscape:connector-curvature="0" /><path
     style="fill:#9b1c1f;stroke:#000000;stroke-width:2"
     d="m 400.55059,603.51973 c 0,21.815 -20.818,49.195 -46.5,49.195 -25.681,0 -51,-26.185 -51,-48 0,-21.815 25.319,8.5 51,8.5 25.68,0 46.5,-31.51 46.5,-9.7 z"
     id="path3808"
     inkscape:connector-curvature="0" /><path
     style="fill:#de5861"
     d="m 379.87059,639.42973 c 0,4.637 -11.869,11.833 -27.333,11.833 -15.464,0 -30.17,-10.52 -30.17,-15.16 0,-4.636 12.786,-4.834 28.25,-4.834 15.464,0 29.25,3.53 29.25,8.16 z"
     id="path3810"
     inkscape:connector-curvature="0" /><path
     style="fill:#b5966d;stroke:#000000"
     d="M 585.86059,410.59973"
     id="path3818"
     inkscape:connector-curvature="0" /><path
     id="path3053"
     sodipodi:nodetypes="csscsscc"
     style="fill:#000000;stroke-width:1.32369876"
     inkscape:connector-curvature="0"
     d="m 481.07494,652.96054 c 0,0 49.46121,15.3378 70.33674,6.87339 15.78169,-6.39928 20.84734,-27.39615 32.45931,-39.91828 11.17869,-12.05538 35.71197,-33.7821 35.71197,-33.7821 0,0 -22.32914,25.32093 -33.22718,38.24245 -11.31793,13.41882 -17.04728,34.61974 -33.39381,40.79269 -21.94302,8.28681 -73.19073,-10.19132 -73.19073,-10.19132 z" /></g><g
   inkscape:groupmode="layer"
   id="layer3"
   inkscape:label="gaisma"
   style="display:inline"
   transform="translate(-110.678,-267.99998)"><path
     style="fill:#ffffff;fill-opacity:0.19801983;stroke:none;stroke-width:1px;stroke-linecap:butt;stroke-linejoin:miter;stroke-opacity:1;filter:url(#filter4929)"
     d="m 169.82954,385.0252 c -8.28363,-1.81939 -10.61525,-15.59086 -8.79586,-23.87449 2.41436,-10.99252 13.62076,-19.2349 23.87449,-23.87449 11.85433,-5.36382 28.63042,-10.43381 38.95312,-2.51311 3.38881,2.60026 4.79726,8.9561 2.5131,12.56553 -4.61747,7.29652 -17.61701,2.02839 -25.13104,6.28276 -12.88645,7.29618 -16.94996,34.5906 -31.41381,31.4138 z"
     id="path4768"
     inkscape:connector-curvature="0"
     sodipodi:nodetypes="aaaaaaa" /><path
     sodipodi:nodetypes="aaaaaaa"
     inkscape:connector-curvature="0"
     id="path4794"
     d="m 134.7024,228.69251 c -8.28363,-1.81939 -10.61525,-15.59086 -8.79586,-23.87449 2.41436,-10.99252 13.62076,-19.2349 23.87449,-23.87449 11.85433,-5.36382 28.63042,-10.43381 38.95312,-2.51311 3.38881,2.60026 4.79726,8.9561 2.5131,12.56553 -4.61747,7.29652 -17.61701,2.02839 -25.13104,6.28276 -12.88645,7.29618 -16.94996,34.5906 -31.41381,31.4138 z"
     style="fill:#ffffff;fill-opacity:0.19801983;stroke:none;stroke-width:1px;stroke-linecap:butt;stroke-linejoin:miter;stroke-opacity:1;filter:url(#filter4985)"
     transform="matrix(-0.46526165,0.84597366,0.76577775,0.23707195,356.68745,171.68783)" /><path
     style="fill:#030000;fill-opacity:0.19801983;stroke:none;stroke-opacity:1;filter:url(#filter4881)"
     d="m 274.60982,384.89484 a 41.592022,39.743488 76.088926 0 0 -48.57776,-30.8168 41.592022,39.743488 76.088926 0 0 -28.89089,30.65751 35.584286,39.281353 76.088926 0 1 6.85962,-2.34691 35.584286,39.281353 76.088926 0 1 46.68598,25.09602 35.584286,39.281353 76.088926 0 1 -5.31859,27.46508 41.592022,39.743488 76.088926 0 0 0.6625,-0.12793 41.592022,39.743488 76.088926 0 0 28.57913,-49.92701 z"
     id="path4800"
     inkscape:connector-curvature="0" /><path
     inkscape:connector-curvature="0"
     id="path4989"
     d="m 465.33615,233.61351 a 41.592022,39.743488 76.088926 0 0 -48.57776,-30.8168 41.592022,39.743488 76.088926 0 0 -28.89089,30.65751 35.584286,39.281353 76.088926 0 1 6.85962,-2.34691 35.584286,39.281353 76.088926 0 1 46.68598,25.09602 35.584286,39.281353 76.088926 0 1 -5.31859,27.46508 41.592022,39.743488 76.088926 0 0 0.6625,-0.12793 41.592022,39.743488 76.088926 0 0 28.57913,-49.92701 z"
     style="fill:#030000;fill-opacity:0.19801983;stroke:none;stroke-opacity:1;filter:url(#filter4881)"
     transform="matrix(-1,0,0,1,885.57622,152.20559)" /><path
     style="fill:#ffffff;fill-opacity:0.19801983;stroke:none;stroke-width:1px;stroke-linecap:butt;stroke-linejoin:miter;stroke-opacity:1;filter:url(#filter4929)"
     d="m 134.7024,228.69251 c -8.28363,-1.81939 -10.61525,-15.59086 -8.79586,-23.87449 2.41436,-10.99252 13.62076,-19.2349 23.87449,-23.87449 11.85433,-5.36382 28.63042,-10.43381 38.95312,-2.51311 3.38881,2.60026 4.79726,8.9561 2.5131,12.56553 -4.61747,7.29652 -17.61701,2.02839 -25.13104,6.28276 -12.88645,7.29618 -16.94996,34.5906 -31.41381,31.4138 z"
     id="path4997"
     inkscape:connector-curvature="0"
     sodipodi:nodetypes="aaaaaaa"
     transform="matrix(-1.3228043,-0.05212841,0.02224813,-0.56456582,681.27182,828.67613)" /><path
     style="fill:#ffffff;fill-opacity:0.19801983;stroke:none;stroke-width:1px;stroke-linecap:butt;stroke-linejoin:miter;stroke-opacity:1;filter:url(#filter4929)"
     d="m 118.8412,251.29424 c -4.85355,-18.18956 0.33891,-36.75317 7.75496,-51.757 5.60954,-11.34899 15.40713,-20.02256 25.59853,-24.50818 12.06177,-5.30885 27.29207,-6.83358 38.43591,-1.24573 -5.30985,5.88127 -20.21665,10.3405 -29.89892,16.57893 -7.35418,4.7384 -15.56488,8.46654 -21.33814,15.78816 -9.77145,12.39208 -18.04608,33.9211 -20.55234,45.14382 z"
     id="path5009"
     inkscape:connector-curvature="0"
     sodipodi:nodetypes="caacaac"
     transform="matrix(2.6326552,0,0,2.1487417,-113.99895,58.393762)" /><path
     inkscape:connector-curvature="0"
     id="path5015"
     d="m 410.14751,444.12987 c -6.35274,-10.01054 -16.31229,-19.41147 -32.04838,-25.6734 -15.03729,-5.98385 -16.08207,-8.36073 -57.0796,-10.36744 27.61325,9.57233 48.61189,18.82863 62.09025,32.61097 7.32031,7.4854 9.71602,16.73088 9.19109,26.16957 -0.79495,14.29394 -13.99352,35.32352 -18.61555,44.81814 27.18456,-14.2892 34.15311,-31.60869 39.79621,-47.06335 2.69966,-7.3935 0.56567,-14.34943 -3.33402,-20.49449 z"
     style="fill:#030000;fill-opacity:0.19801983;stroke:none;stroke-opacity:1;filter:url(#filter4881)"
     transform="matrix(0.8751131,0.27055303,1.1533696,-1.4885024,-410.65661,1214.0743)"
     sodipodi:nodetypes="aacaacaa" /><path
     sodipodi:nodetypes="aaaaaaa"
     inkscape:connector-curvature="0"
     id="path5084"
     d="m 134.7024,228.69251 c -8.28363,-1.81939 -10.61525,-15.59086 -8.79586,-23.87449 2.41436,-10.99252 13.62076,-19.2349 23.87449,-23.87449 11.85433,-5.36382 28.63042,-10.43381 38.95312,-2.51311 3.38881,2.60026 4.79726,8.9561 2.5131,12.56553 -4.61747,7.29652 -17.61701,2.02839 -25.13104,6.28276 -12.88645,7.29618 -16.94996,34.5906 -31.41381,31.4138 z"
     style="fill:#ffffff;fill-opacity:0.19801983;stroke:none;stroke-width:1px;stroke-linecap:butt;stroke-linejoin:miter;stroke-opacity:1;filter:url(#filter4929)"
     transform="matrix(1.3228043,-0.05212841,-0.02224813,-0.56456582,-1.7324464,826.8276)" /></g><g
   inkscape:groupmode="layer"
   id="layer5"
   inkscape:label="gaisma 2"
   style="display:none"
   transform="translate(-110.678,-267.99998)"><path
     inkscape:connector-curvature="0"
     id="path5017"
     d="m 361.81823,390.73893 a 41.592022,39.743488 76.088926 0 0 -48.57776,-30.8168 41.592022,39.743488 76.088926 0 0 -28.89089,30.65751 35.584286,39.281353 76.088926 0 1 6.85962,-2.34691 35.584286,39.281353 76.088926 0 1 46.68598,25.09602 35.584286,39.281353 76.088926 0 1 -5.31859,27.46508 41.592022,39.743488 76.088926 0 0 0.6625,-0.12793 41.592022,39.743488 76.088926 0 0 28.57913,-49.92701 z"
     style="display:inline;fill:#030000;fill-opacity:0.19801983;stroke:none;stroke-opacity:1;filter:url(#filter4881)"
     transform="matrix(0.08204428,0.82724071,-0.84450462,0.08036708,673.16588,264.28075)" /><g
     style="display:inline;filter:url(#filter4929)"
     transform="matrix(0.82957408,-0.24569586,0.25911123,0.67443548,150.44003,445.86036)"
     id="g5023"><path
       style="fill:#ffffff;fill-opacity:0.31188121;stroke:none;stroke-width:1px;stroke-linecap:butt;stroke-linejoin:miter;stroke-opacity:1;filter:url(#filter5065)"
       d="m 132.39228,240.81497 c -9.18556,-3.48868 -2.75872,-24.59772 1.79198,-35.50078 4.69974,-11.26014 14.06491,-20.97698 23.91987,-25.08034 7.06219,-2.94052 15.45521,-2.1472 21.70618,1.79778 5.24838,3.31224 13.29054,9.87054 10.79542,16.80514 -4.89717,13.61055 -25.32417,0.25095 -35.9507,8.0456 -10.20792,7.48759 -11.50147,38.01972 -22.26275,33.9326 z"
       id="path5019"
       inkscape:connector-curvature="0"
       sodipodi:nodetypes="aaaaaaa" /></g></g><g
   inkscape:groupmode="layer"
   id="layer4"
   inkscape:label="seja"
   style="display:inline"
   transform="translate(-110.678,-267.99998)"><ellipse
     style="display:inline"
     cy="502.46973"
     cx="400.87061"
     rx="14.5"
     ry="25"
     id="ellipse3784" /><ellipse
     style="display:inline;fill:#ffffff"
     cy="495.96973"
     cx="390.87061"
     rx="4.5"
     ry="6.5"
     id="ellipse3786" /><ellipse
     style="display:inline"
     cy="502.46973"
     cx="293.87061"
     rx="14.5"
     ry="25"
     id="ellipse3788" /><ellipse
     style="display:inline;fill:#ffffff"
     cy="495.96973"
     cx="283.87061"
     rx="4.5"
     ry="6.5"
     id="ellipse3790" /><ellipse
     style="display:inline;fill:#ed1c24;stroke-width:1.60634565"
     cy="562.30493"
     cx="352.18774"
     rx="16.153053"
     ry="15.290652"
     id="ellipse3792" /><polygon
     style="display:inline;fill:#fffafa"
     points="340,450.43 340,478.92 320,478.92 320.43,454.58 "
     id="polygon3814"
     transform="translate(33.870589,159.59973)" /><polygon
     style="display:inline;fill:#fffafa"
     points="315.67,455 314.33,478.92 294.33,478.92 294.33,448 "
     id="polygon3816"
     transform="translate(33.870589,159.59973)" /><path
     style="display:inline;fill:none;stroke:#000000;stroke-width:3"
     d="m 219.87059,607.73973 c 11.93,17.249 48.514,2.029 11.93,17.249"
     id="path3822"
     inkscape:connector-curvature="0" /><path
     style="display:inline;fill:none;stroke:#000000;stroke-width:3"
     d="m 486.57059,602.53973 c -8.948,18.465 -46.63,1.396 -8.948,18.465"
     id="path3824"
     inkscape:connector-curvature="0" /><path
     style="display:inline;fill:#ffffff;fill-opacity:1;stroke-width:0.62826627"
     d="m 348.5318,548.81402 c -4.31656,1.13399 -7.93317,5.26617 -9.27694,9.40578 -0.72917,2.24625 -1.17171,6.04122 1.11047,6.9826 -0.25004,-0.73564 1.11861,-5.11304 2.38892,-7.37646 1.25969,-2.2445 2.7759,-4.6053 5.04708,-5.89897 2.11764,-1.20621 6.5978,-1.57444 7.24232,-1.30556 -0.85588,-2.52367 -4.33264,-2.3799 -6.51185,-1.80739 z"
     id="ellipse923"
     inkscape:connector-curvature="0"
     sodipodi:nodetypes="aacaaca" /></g><g
   inkscape:groupmode="layer"
   id="layer2"
   inkscape:label="ūsas"
   style="display:inline"
   transform="translate(-110.678,-267.99998)"><line
     style="display:inline;fill:none;fill-opacity:1;stroke:#acc5d0;stroke-width:2;stroke-opacity:1"
     y2="532.67975"
     y1="568.01978"
     x2="118.12659"
     x1="269.19061"
     id="line3796" /><line
     style="display:inline;fill:none;fill-opacity:1;stroke:#acc5d0;stroke-width:2;stroke-opacity:1"
     y2="602.53973"
     y1="570.02972"
     x2="117.48558"
     x1="269.19061"
     id="line3798" /><line
     style="display:inline;fill:none;fill-opacity:1;stroke:#acc5d0;stroke-width:2;stroke-opacity:1"
     y2="568.62976"
     y1="570.01978"
     x2="113.29057"
     x1="268.4306"
     id="line3800" /><line
     style="display:inline;fill:none;fill-opacity:1;stroke:#acc5d0;stroke-width:2;stroke-opacity:1"
     y2="601.58972"
     y1="567.60974"
     x2="585.86053"
     x1="434.48059"
     id="line3802" /><line
     style="display:inline;fill:none;fill-opacity:1;stroke:#acc5d0;stroke-width:2;stroke-opacity:1"
     y2="531.72974"
     y1="565.59973"
     x2="585.87054"
     x1="434.47061"
     id="line3804" /><line
     style="display:inline;fill:none;fill-opacity:1;stroke:#acc5d0;stroke-width:2;stroke-opacity:1"
     y2="565.59973"
     y1="565.59973"
     x2="590.37054"
     x1="435.23059"
     id="line3806" /></g></svg>